<svg xmlns="http://www.w3.org/2000/svg" width="194" height="194" viewBox="0 0 194 194">
    <g fill="none" fill-rule="evenodd">
        <g>
            <g>
                <g>
                    <g>
                        <path fill="#FFFFFE" d="M0.26 193.433L193.016 193.433 193.016 0.677 0.26 0.677z" transform="translate(-1140 -2822) translate(0 2282) translate(0 260) translate(1140 280)"/>
                        <path fill="#1A1919" d="M46.03 119.788L46.03 48.833 53.185 48.833 53.185 127.092 40.068 127.092 20.838 58.522 20.242 58.373 20.242 127.241 13.087 127.241 13.087 49.131 26.502 49.131 46.03 119.788M55.57 88.186c0-22.36 18.186-40.546 40.546-40.546s40.546 18.186 40.546 40.546-18.186 40.546-40.546 40.546S55.57 110.546 55.57 88.186zm74.384 19.527c3.279-5.664 5.366-12.521 5.366-19.527 0-6.857-1.788-13.267-4.77-18.931l-5.217 3.279c-5.515-10.435-16.546-17.59-29.217-17.59-18.335 0-33.241 14.907-33.241 33.242 0 18.335 14.906 33.241 33.241 33.241 12.521 0 23.403-7.006 29.068-17.291l4.77 3.577z" transform="translate(-1140 -2822) translate(0 2282) translate(0 260) translate(1140 280)"/>
                        <path fill="#1A1919" d="M158.276 48.236c11.18 0 20.124 9.093 20.124 20.571h-7.155c0-5.515-4.174-13.266-13.416-13.266-9.093 0-12.521 8.943-12.521 12.67 0 6.559 3.428 11.925 11.031 13.267 11.179 1.938 24.297 6.559 24.297 23.85 0 17.441-16.546 22.509-22.061 22.509-8.646 0-23.106-6.708-23.106-22.658h7.305c0 5.069 4.472 14.907 15.502 14.907 10.882 0 14.758-9.54 14.758-14.459 0-12.075-8.497-15.652-17.441-17.143-10.435-1.64-17.44-8.944-17.44-20.422s9.689-19.826 20.123-19.826" transform="translate(-1140 -2822) translate(0 2282) translate(0 260) translate(1140 280)"/>
                        <path fill="#1A1919" d="M8.764 89.229L184.512 89.229 184.512 88.186 8.764 88.186z" transform="translate(-1140 -2822) translate(0 2282) translate(0 260) translate(1140 280)"/>
                        <path fill="#1A1919" d="M95.52 132.16L96.563 132.16 96.563 43.913 95.52 43.913zM80.017 58.224L78.973 58.224 78.825 119.191 80.017 119.191 80.017 58.224" transform="translate(-1140 -2822) translate(0 2282) translate(0 260) translate(1140 280)"/>
                        <path fill="#1A1919" d="M106.7 71.043L105.805 70.298 77.632 119.49 78.526 120.086 106.7 71.043" transform="translate(-1140 -2822) translate(0 2282) translate(0 260) translate(1140 280)"/>
                        <path fill="#1A1919" d="M79.272 57.777L78.377 58.522 105.507 106.372 106.401 105.627 79.272 57.777" transform="translate(-1140 -2822) translate(0 2282) translate(0 260) translate(1140 280)"/>
                        <path fill="#1A1919" d="M79.868 58.82L79.272 59.416 129.507 88.931 130.55 88.633 79.868 58.82" transform="translate(-1140 -2822) translate(0 2282) translate(0 260) translate(1140 280)"/>
                        <path fill="#1A1919" d="M130.103 88.782L129.06 88.186 76.737 118.595 77.483 119.49 130.103 88.782M20.242 134.396L21.882 134.396 21.882 146.619 19.944 146.619 13.832 136.781 13.832 146.619 12.192 146.619 12.192 134.396 14.13 134.396 20.242 144.234 20.242 134.396M23.521 140.359c0-2.087 1.491-2.833 3.578-2.833.745 0 3.279.15 3.279 2.386v5.068c0 .447.149.596.448.596.149 0 .297 0 .596-.149v1.192c-.299 0-.596.15-.895.15-1.341 0-1.49-.746-1.49-1.342-.597.596-1.491 1.342-3.28 1.342-1.639 0-2.683-1.044-2.683-2.535 0-.745.149-2.385 2.683-2.683l2.385-.298c.298-.149.745-.149.745-1.043 0-1.044-.596-1.491-2.086-1.491-1.64 0-1.789 1.043-1.938 1.64h-1.342zm5.366 1.639c-.297.299-.596.448-2.385.597-.745.149-1.937.298-1.937 1.49 0 .895.447 1.491 1.639 1.491 1.342 0 2.683-.894 2.683-2.087v-1.491zM33.956 139.017v5.665c0 .745.596.745.894.745h.597v1.192h-1.193c-1.342 0-1.64-.745-1.64-1.788v-5.814h-1.341v-1.192h1.341v-2.534h1.342v2.534h1.491v1.192h-1.491M42.602 146.619v-1.341c-.597 1.043-1.342 1.491-2.833 1.491-1.192 0-2.832-.597-2.832-2.684v-6.26h1.491v5.813c0 1.342.745 1.938 1.788 1.938 1.789 0 2.386-1.64 2.386-2.981v-4.77h1.49v8.794h-1.49M47.968 146.619h-1.491v-8.794h1.491v1.341c.596-1.043 1.341-1.64 2.385-1.64h.447v1.491h-.596c-1.342 0-2.236 1.193-2.236 2.385v5.217M51.546 140.359c0-2.087 1.49-2.833 3.577-2.833.745 0 3.279.15 3.279 2.386v5.068c0 .447.299.596.597.596 0 0 .298 0 .447-.149v1.192c-.298 0-.447.15-.894.15-1.193 0-1.491-.746-1.491-1.342-.596.596-1.491 1.342-3.131 1.342-1.639 0-2.832-1.044-2.832-2.535 0-.745.299-2.385 2.684-2.683l2.384-.298c.448-.149.895-.149.895-1.043 0-1.044-.745-1.491-2.087-1.491-1.789 0-1.938 1.043-2.087 1.64h-1.341zm5.366 1.639c-.149.299-.596.448-2.385.597-.745.149-1.938.298-1.938 1.49 0 .895.596 1.491 1.64 1.491 1.341 0 2.683-.894 2.683-2.087v-1.491zM61.086 146.619L62.577 146.619 62.577 134.396 61.086 134.396zM76.737 138.123c-.447-2.087-2.236-2.534-3.428-2.534-2.236 0-3.876 1.639-3.876 4.77 0 2.832.895 5.068 3.876 5.068 1.192 0 2.981-.447 3.578-3.279h1.49c-.596 4.471-4.323 4.77-5.217 4.77-2.832 0-5.516-1.789-5.516-6.41 0-3.727 2.236-6.41 5.665-6.41 3.131 0 4.77 1.938 4.919 4.025h-1.491M83.893 137.526c2.683 0 4.025 2.386 4.025 4.622 0 2.236-1.342 4.621-4.025 4.621-2.832 0-4.174-2.385-4.174-4.621 0-2.236 1.342-4.622 4.174-4.622zm0 8.05c2.087 0 2.534-2.236 2.534-3.428 0-1.193-.447-3.429-2.534-3.429-2.236 0-2.683 2.236-2.683 3.429 0 1.192.447 3.428 2.683 3.428zM89.706 146.619L91.197 146.619 91.197 134.396 89.706 134.396zM96.563 137.526c2.833 0 4.174 2.386 4.174 4.622 0 2.236-1.341 4.621-4.174 4.621-2.683 0-4.024-2.385-4.024-4.621 0-2.236 1.341-4.622 4.024-4.622zm0 8.05c2.236 0 2.684-2.236 2.684-3.428 0-1.193-.448-3.429-2.684-3.429-2.087 0-2.534 2.236-2.534 3.429 0 1.192.447 3.428 2.534 3.428zM103.718 146.619h-1.49v-8.794h1.49v1.341c.597-1.043 1.342-1.64 2.535-1.64h.298v1.491h-.597c-1.341 0-2.236 1.193-2.236 2.385v5.217M117.731 137.974c0-1.789-1.64-2.385-2.982-2.385-1.043 0-2.683.298-2.683 2.087 0 1.043.596 1.341 1.342 1.49l3.428.895c1.64.298 2.832 1.192 2.832 3.13 0 2.981-2.683 3.727-4.77 3.727-2.236 0-3.13-.746-3.726-1.193-.895-.894-1.193-1.938-1.193-3.13h1.64c0 2.236 1.639 2.832 3.279 2.832 1.193 0 3.131-.298 3.131-1.938 0-1.341-.597-1.64-2.535-2.236l-2.533-.447c-.746-.298-2.535-.745-2.535-2.981 0-1.789 1.193-3.727 4.174-3.727 4.174 0 4.621 2.534 4.621 3.876h-1.49M127.122 137.825h1.49c-.894 2.832-1.937 5.664-3.13 8.645-1.342 3.578-1.491 3.727-3.429 3.727-.149 0-.298-.149-.596-.149v-1.342c.149 0 .447.149.894.149.746 0 .895-.298 1.491-2.086l-3.13-8.944h1.639l2.385 7.155 2.386-7.155M134.575 140.21c0-.448-.149-1.491-2.087-1.491-.447 0-1.64.149-1.64 1.342 0 .745.448.894 1.491 1.192l1.49.298c1.938.447 2.535 1.193 2.535 2.385 0 1.789-1.491 2.833-3.429 2.833-3.577 0-3.727-1.938-3.875-2.982h1.49c0 .597.149 1.789 2.236 1.789 1.193 0 2.087-.447 2.087-1.491 0-.596-.447-.894-1.789-1.192l-1.64-.447c-1.192-.298-2.086-.895-2.086-2.087 0-1.938 1.639-2.833 3.279-2.833 3.28 0 3.428 2.236 3.428 2.684h-1.49M139.941 139.017v5.665c0 .745.597.745.895.745h.447v1.192h-1.044c-1.49 0-1.788-.745-1.788-1.788v-5.814h-1.193v-1.192h1.193v-2.534h1.49v2.534h1.342v1.192h-1.342M150.227 143.787c0 .447-.448 1.64-1.491 2.385-.447.298-1.043.597-2.385.597-2.534 0-4.025-1.789-4.025-4.323 0-2.833 1.342-4.92 4.323-4.92 2.534 0 3.727 1.938 3.727 5.069h-6.41c0 1.938.894 2.981 2.534 2.981 1.491 0 2.236-1.043 2.236-1.789h1.491zm-1.342-2.385c-.149-1.341-.596-2.534-2.534-2.534-1.341 0-2.385 1.193-2.385 2.534h4.919zM151.867 137.825h1.341v1.192c.447-.447 1.193-1.491 2.683-1.491 1.64 0 2.087.895 2.385 1.342.746-.745 1.342-1.342 2.684-1.342.894 0 2.683.448 2.683 2.982v6.111h-1.491v-5.813c0-1.193-.298-1.938-1.64-1.938-1.192 0-1.937 1.193-1.937 2.385v5.366h-1.491v-6.111c0-.746-.298-1.64-1.491-1.64-.745 0-2.236.447-2.236 2.832v4.919h-1.49v-8.794M165.581 140.061c0-3.876 3.279-6.708 7.005-6.708 3.578 0 6.857 2.832 6.857 6.708 0 4.024-3.279 6.857-6.857 6.857-3.726 0-7.005-2.833-7.005-6.857zm7.005 5.664c2.982 0 5.367-2.385 5.367-5.664 0-3.131-2.385-5.516-5.367-5.516-3.13 0-5.515 2.385-5.515 5.516 0 3.279 2.385 5.664 5.515 5.664zm-1.49-1.64h-1.193v-7.9h2.982c1.789 0 2.832.745 2.832 2.236s-.895 2.087-2.087 2.236l2.236 3.428h-1.341l-2.087-3.428h-1.342v3.428zm1.49-4.472c.895 0 1.789 0 1.789-1.192 0-1.044-.894-1.193-1.639-1.193h-1.64v2.385h1.49z" transform="translate(-1140 -2822) translate(0 2282) translate(0 260) translate(1140 280)"/>
                    </g>
                </g>
            </g>
        </g>
    </g>
</svg>
